<?xml version="1.0" encoding="UTF-8" standalone="no"?>
<svg xmlns="http://www.w3.org/2000/svg" width="512" height="512" viewBox="0 0 512 512">
  <rect width="512" height="512" rx="50" fill="#25D366"/>
  <path d="M 256 100 C 171.2 100 102.4 168.8 102.4 253.6 C 102.4 280 109.6 305.6 123.2 327.2 L 102.4 412 L 189.6 391.2 C 210.4 403.2 232.8 409.6 256 409.6 C 340.8 409.6 409.6 340.8 409.6 256 C 409.6 171.2 340.8 100 256 100 Z M 256 132 C 323.2 132 377.6 186.4 377.6 253.6 C 377.6 320.8 323.2 375.2 256 375.2 C 235.2 375.2 215.2 369.6 198.4 360 L 189.6 354.4 L 180 357.6 L 145.6 366.4 L 154.4 334.4 L 158.4 323.2 L 151.2 313.6 C 140 296.8 134.4 275.2 134.4 253.6 C 134.4 186.4 188.8 132 256 132 Z" fill="white"/>
  <path d="M 190.4 180.8 C 187.2 172.8 184 172.8 180.8 172.8 C 177.6 172.8 174.4 172.8 171.2 172.8 C 168 172.8 161.6 174.4 158.4 180.8 C 155.2 187.2 142.4 200 142.4 226.4 C 142.4 252.8 161.6 277.6 164.8 280.8 C 168 284 200 336 251.2 356.8 C 292.8 373.6 302.4 370.4 312 368.8 C 321.6 367.2 344 355.2 347.2 342.4 C 350.4 329.6 350.4 318.4 348.8 316.8 C 347.2 315.2 344 313.6 339.2 310.4 C 334.4 307.2 308 294.4 303.2 292.8 C 298.4 291.2 295.2 289.6 292 294.4 C 288.8 299.2 278.4 310.4 275.2 313.6 C 272 316.8 268.8 317.6 264 314.4 C 259.2 311.2 241.6 305.6 220.8 286.4 C 204.8 271.2 194.4 252.8 191.2 248 C 188 243.2 190.4 240 193.6 236.8 C 196 234.4 199.2 230.4 201.6 227.2 C 204 224 205.6 221.6 207.2 218.4 C 208.8 215.2 207.2 212 206.4 209.6 C 205.6 207.2 194.4 180.8 190.4 180.8 Z" fill="white"/>
  <circle cx="256" cy="256" r="40" fill="#25D366" stroke="white" stroke-width="8"/>
  <path d="M 240 240 L 272 272 M 240 272 L 272 240" stroke="white" stroke-width="8" stroke-linecap="round"/>
</svg>
